<svg width="134" height="34" fill="none" xmlns="http://www.w3.org/2000/svg"><path d="M36.125 3.906h1.07c.882 0 1.51-.517 1.51-1.259 0-.729-.547-1.206-1.497-1.206-.936 0-1.537.464-1.604 1.233h-1.177c.08-1.431 1.15-2.319 2.821-2.319 1.565 0 2.675.874 2.675 2.12 0 .874-.589 1.616-1.445 1.802v.093c1.03.106 1.779.808 1.779 1.908 0 1.351-1.297 2.345-2.982 2.345-1.738 0-2.928-.928-2.995-2.345h1.19c.067.755.776 1.245 1.805 1.245 1.03 0 1.712-.543 1.712-1.325 0-.782-.642-1.272-1.752-1.272h-1.096v-1.02h-.014zm5.468 2.875c0-1.073.802-1.696 2.233-1.775l1.63-.093v-.517c0-.636-.414-.98-1.23-.98-.668 0-1.123.238-1.256.662h-1.15c.12-1.02 1.096-1.682 2.46-1.682 1.511 0 2.367.742 2.367 2v4.081h-1.15v-.834h-.094c-.36.596-1.016.94-1.805.94-1.163-.013-2.005-.702-2.005-1.802zm3.864-.503v-.504l-1.471.093c-.829.053-1.203.331-1.203.861 0 .544.468.848 1.11.848.909 0 1.564-.556 1.564-1.298zm4.346-2.783v4.969h-1.19V2.501h3.957v.994h-2.767zm9.975 1.988c0 1.895-.962 3.087-2.487 3.087-.856 0-1.537-.371-1.858-1.007h-.094v2.888h-1.19v-7.95h1.15v.981h.093c.361-.676 1.07-1.086 1.886-1.086 1.538.013 2.5 1.192 2.5 3.087zm-1.217 0c0-1.259-.601-2.027-1.604-2.027-1.003 0-1.631.781-1.631 2.027 0 1.245.628 2.027 1.617 2.027 1.017 0 1.618-.755 1.618-2.027zm2.795 5.127V9.59c.093.013.28.027.387.027.562 0 .883-.226 1.084-.835l.093-.292-2.18-5.989h1.298l1.51 4.744h.094l1.511-4.744h1.257l-2.246 6.215c-.508 1.457-1.084 1.921-2.314 1.921-.093 0-.374-.013-.494-.027zm5.976-3.829h1.177c.12.53.615.795 1.31.795.79 0 1.284-.344 1.284-.887 0-.57-.441-.848-1.284-.848h-.896v-.915h.883c.722 0 1.083-.278 1.083-.768 0-.437-.348-.769-1.083-.769-.669 0-1.15.279-1.23.756h-1.15c.12-1.06 1.016-1.75 2.367-1.75 1.43 0 2.246.637 2.246 1.644a1.23 1.23 0 01-.95 1.219v.092c.776.186 1.177.676 1.177 1.339 0 1.139-.976 1.881-2.46 1.881-1.297.013-2.367-.583-2.474-1.789zm6.675 1.696V2.515h1.176v4.107h.094l2.781-4.107h1.177v5.962h-1.177v-4.12h-.093l-2.782 4.12h-1.176zm11.71-4.982H83.82v4.969h-1.19V3.495h-1.9v-.994h4.988v.994zm6.392 3.365c-.267 1.074-1.23 1.723-2.607 1.723-1.725 0-2.782-1.166-2.782-3.074s1.084-3.113 2.782-3.113c1.671 0 2.687 1.139 2.687 3.007v.411h-4.252v.066c.04 1.047.655 1.71 1.605 1.71.722 0 1.216-.252 1.43-.73h1.137zm-4.172-1.92h3.035c-.026-.941-.601-1.55-1.484-1.55-.882 0-1.484.622-1.55 1.55zm9.213-2.439h2.715c1.177 0 1.872.597 1.872 1.524 0 .61-.428 1.153-1.016 1.259v.093c.776.092 1.284.649 1.284 1.378 0 1.046-.789 1.722-2.113 1.722h-2.741V2.501zm1.178.915v1.55h1.176c.722 0 1.057-.278 1.057-.782 0-.464-.295-.768-.936-.768h-1.297zm0 2.411v1.75h1.404c.708 0 1.083-.306 1.083-.875 0-.597-.428-.875-1.23-.875h-1.257zM20.121 15.898c-.04-3.644 3.009-5.42 3.156-5.499-1.725-2.491-4.4-2.836-5.335-2.862-2.247-.239-4.426 1.325-5.563 1.325-1.163 0-2.928-1.312-4.827-1.272-2.447.04-4.733 1.444-5.977 3.617-2.58 4.439-.655 10.958 1.819 14.549 1.243 1.762 2.688 3.723 4.586 3.643 1.859-.079 2.554-1.166 4.787-1.166 2.22 0 2.862 1.166 4.8 1.127 1.993-.027 3.25-1.762 4.44-3.538 1.43-2.014 2.005-4.002 2.032-4.094-.067-.014-3.878-1.458-3.918-5.83zM16.47 5.178c1.002-1.232 1.684-2.915 1.484-4.624-1.445.066-3.25.994-4.293 2.2-.922 1.06-1.738 2.809-1.524 4.452 1.618.119 3.29-.809 4.332-2.028zM43.56 24.96h-6.325l-1.524 4.453h-2.674l5.99-16.457h2.781l5.99 16.457h-2.727L43.56 24.96zm-5.67-2.053h5.015l-2.474-7.221h-.067l-2.473 7.22zm22.865.503c0 3.723-2.02 6.122-5.055 6.122-1.725 0-3.089-.769-3.81-2.094h-.054v5.936h-2.487V17.408h2.407v2h.04c.695-1.285 2.166-2.12 3.85-2.12 3.09 0 5.108 2.399 5.108 6.122zm-2.554 0c0-2.425-1.27-4.028-3.196-4.028-1.899 0-3.183 1.63-3.183 4.028 0 2.412 1.284 4.041 3.183 4.041 1.925 0 3.196-1.59 3.196-4.04zm15.874 0c0 3.723-2.019 6.122-5.054 6.122-1.725 0-3.089-.769-3.811-2.094h-.053v5.936h-2.474V17.408h2.407v2h.04c.695-1.285 2.166-2.12 3.85-2.12 3.076 0 5.095 2.399 5.095 6.122zm-2.554 0c0-2.425-1.27-4.028-3.195-4.028-1.9 0-3.183 1.63-3.183 4.028 0 2.412 1.284 4.041 3.183 4.041 1.938 0 3.195-1.59 3.195-4.04zm11.362 1.418c.188 1.63 1.779 2.703 3.972 2.703 2.099 0 3.597-1.073 3.597-2.544 0-1.272-.91-2.04-3.062-2.57l-2.153-.517c-3.049-.729-4.466-2.147-4.466-4.439 0-2.835 2.5-4.783 6.044-4.783 3.503 0 5.91 1.947 5.99 4.783H90.29c-.147-1.643-1.524-2.637-3.516-2.637-1.993 0-3.37 1.007-3.37 2.465 0 1.166.87 1.841 3.008 2.371l1.832.451c3.41.795 4.827 2.16 4.827 4.558 0 3.074-2.473 5.008-6.404 5.008-3.678 0-6.165-1.881-6.325-4.862h2.54v.013zM98.45 14.573v2.835h2.299v1.948h-2.3v6.612c0 1.033.455 1.51 1.471 1.51.254 0 .655-.04.816-.053v1.935c-.281.066-.83.119-1.377.119-2.447 0-3.41-.914-3.41-3.233v-6.877h-1.765v-1.947h1.765v-2.85h2.5zm3.621 8.837c0-3.776 2.247-6.148 5.737-6.148 3.516 0 5.736 2.372 5.736 6.148 0 3.79-2.22 6.148-5.736 6.148-3.504 0-5.737-2.358-5.737-6.148zm8.959 0c0-2.584-1.203-4.12-3.209-4.12-2.006 0-3.209 1.537-3.209 4.12 0 2.597 1.19 4.121 3.209 4.121s3.209-1.524 3.209-4.12zm4.589-6.002h2.367v2.04h.054c.374-1.35 1.484-2.172 2.914-2.172.362 0 .656.053.856.093v2.305c-.2-.08-.628-.146-1.11-.146-1.604 0-2.594 1.074-2.594 2.756V29.4h-2.487V17.408zm17.636 8.48c-.334 2.173-2.473 3.67-5.214 3.67-3.517 0-5.71-2.332-5.71-6.095s2.193-6.2 5.603-6.2c3.343 0 5.455 2.278 5.455 5.922v.848h-8.544v.146c0 2.054 1.297 3.392 3.263 3.392 1.377 0 2.46-.65 2.794-1.683h2.353zm-8.397-3.59h6.057c-.053-1.842-1.243-3.048-2.968-3.048-1.711.013-2.955 1.245-3.089 3.047z" fill="#fff"/></svg>