<svg width="134" height="34" viewBox="0 0 134 34" fill="none" xmlns="http://www.w3.org/2000/svg">
<path d="M36.1252 3.90598H37.1949C38.0774 3.90598 38.7058 3.38923 38.7058 2.64723C38.7058 1.91848 38.1576 1.44148 37.2082 1.44148C36.2723 1.44148 35.6706 1.90523 35.6037 2.67373H34.427C34.5073 1.24273 35.577 0.35498 37.2484 0.35498C38.8128 0.35498 39.9226 1.22948 39.9226 2.47498C39.9226 3.34948 39.3343 4.09148 38.4785 4.27698V4.36973C39.5081 4.47573 40.2569 5.17798 40.2569 6.27773C40.2569 7.62924 38.9599 8.62299 37.2751 8.62299C35.5368 8.62299 34.3468 7.69549 34.28 6.27773H35.47C35.5368 7.03299 36.2455 7.52323 37.2751 7.52323C38.3047 7.52323 38.9866 6.97998 38.9866 6.19823C38.9866 5.41648 38.3448 4.92623 37.235 4.92623H36.1385V3.90598H36.1252Z" fill="white"/>
<path d="M41.5926 6.78126C41.5926 5.70801 42.3948 5.08526 43.8256 5.00576L45.4569 4.91301V4.39626C45.4569 3.76026 45.0423 3.41576 44.2267 3.41576C43.5581 3.41576 43.1035 3.65426 42.9698 4.07826H41.8199C41.9402 3.05801 42.9163 2.39551 44.2802 2.39551C45.7911 2.39551 46.6469 3.13751 46.6469 4.39626V8.47726H45.497V7.64251H45.4034C45.0423 8.23876 44.3872 8.58326 43.5983 8.58326C42.435 8.57001 41.5926 7.88101 41.5926 6.78126ZM45.4569 6.27776V5.77426L43.986 5.86701C43.157 5.92001 42.7826 6.19826 42.7826 6.72826C42.7826 7.27151 43.2506 7.57626 43.8924 7.57626C44.8017 7.57626 45.4569 7.01976 45.4569 6.27776Z" fill="white"/>
<path d="M49.8026 3.49521V8.46397H48.6125V2.50146H52.5704V3.49521H49.8026Z" fill="white"/>
<path d="M59.7782 5.48276C59.7782 7.37751 58.8155 8.57001 57.2912 8.57001C56.4354 8.57001 55.7535 8.19901 55.4326 7.56301H55.339V10.4515H54.1489V2.50151H55.2989V3.48201H55.3925C55.7535 2.80626 56.4622 2.39551 57.2778 2.39551C58.8155 2.40876 59.7782 3.58801 59.7782 5.48276ZM58.5614 5.48276C58.5614 4.22401 57.9597 3.45551 56.9569 3.45551C55.9541 3.45551 55.3256 4.23726 55.3256 5.48276C55.3256 6.72826 55.9541 7.51001 56.9435 7.51001C57.9597 7.51001 58.5614 6.75476 58.5614 5.48276Z" fill="white"/>
<path d="M61.3556 10.6105V9.59022C61.4492 9.60347 61.6364 9.61672 61.7434 9.61672C62.305 9.61672 62.6259 9.39147 62.8265 8.78197L62.9201 8.49047L60.7406 2.50146H62.0376L63.5485 7.24497H63.6421L65.1531 2.50146H66.4099L64.1636 8.71572C63.6555 10.1732 63.0805 10.637 61.8504 10.637C61.7568 10.637 61.476 10.6237 61.3556 10.6105Z" fill="white"/>
<path d="M67.3322 6.78126H68.5088C68.6292 7.31126 69.1239 7.57626 69.8192 7.57626C70.6081 7.57626 71.1029 7.23176 71.1029 6.68851C71.1029 6.11876 70.6616 5.84051 69.8192 5.84051H68.9234V4.92626H69.8059C70.5279 4.92626 70.8889 4.64801 70.8889 4.15776C70.8889 3.72051 70.5413 3.38926 69.8059 3.38926C69.1373 3.38926 68.6559 3.66751 68.5757 4.14451H67.4258C67.5461 3.08451 68.442 2.39551 69.7925 2.39551C71.2232 2.39551 72.0388 3.03151 72.0388 4.03851C72.0388 4.63476 71.6511 5.12501 71.0895 5.25751V5.35026C71.865 5.53576 72.2662 6.02601 72.2662 6.68851C72.2662 7.82801 71.2901 8.57001 69.8059 8.57001C68.5088 8.58326 67.4392 7.98701 67.3322 6.78126Z" fill="white"/>
<path d="M74.0067 8.47715V2.51465H75.1834V6.62215H75.277L78.0583 2.51465H79.2349V8.47715H78.0583V4.3564H77.9647L75.1834 8.47715H74.0067Z" fill="white"/>
<path d="M85.7172 3.49521H83.8185V8.46397H82.6284V3.49521H80.7297V2.50146H85.7172V3.49521Z" fill="white"/>
<path d="M92.109 6.86076C91.8416 7.93401 90.8789 8.58326 89.5016 8.58326C87.7768 8.58326 86.7204 7.41726 86.7204 5.50926C86.7204 3.60126 87.8035 2.39551 89.5016 2.39551C91.1731 2.39551 92.1893 3.53501 92.1893 5.40326V5.81401H87.9372V5.88026C87.9773 6.92701 88.5924 7.58951 89.5418 7.58951C90.2638 7.58951 90.7585 7.33776 90.9725 6.86076H92.109ZM87.9372 4.93951H90.9725C90.9457 3.99876 90.3708 3.38926 89.4883 3.38926C88.6058 3.38926 88.0041 4.01201 87.9372 4.93951Z" fill="white"/>
<path d="M97.1509 2.50146H99.8653C101.042 2.50146 101.737 3.09772 101.737 4.02522C101.737 4.63472 101.309 5.17797 100.721 5.28397V5.37672C101.497 5.46947 102.005 6.02597 102.005 6.75472C102.005 7.80147 101.216 8.47722 99.892 8.47722H97.1509V2.50146ZM98.3276 3.41572V4.96597H99.5043C100.226 4.96597 100.561 4.68772 100.561 4.18422C100.561 3.72047 100.266 3.41572 99.6246 3.41572H98.3276ZM98.3276 5.82722V7.57622H99.7316C100.44 7.57622 100.815 7.27147 100.815 6.70172C100.815 6.10547 100.387 5.82722 99.5845 5.82722H98.3276Z" fill="white"/>
<path d="M20.1214 15.8977C20.0812 12.254 23.1299 10.4785 23.277 10.399C21.5521 7.90796 18.8778 7.56346 17.9419 7.53696C15.6955 7.29846 13.516 8.86196 12.3794 8.86196C11.2161 8.86196 9.45113 7.55021 7.55242 7.58996C5.10548 7.62971 2.81901 9.03421 1.57548 11.2072C-1.00516 15.646 0.920293 22.165 3.39397 25.7557C4.63749 27.518 6.08158 29.479 7.9803 29.3995C9.83889 29.32 10.5342 28.2335 12.7672 28.2335C14.9868 28.2335 15.6286 29.3995 17.5675 29.3597C19.5598 29.3332 20.8167 27.5975 22.0067 25.822C23.4374 23.808 24.0124 21.8205 24.0391 21.7277C23.9723 21.7145 20.1615 20.2702 20.1214 15.8977Z" fill="white"/>
<path d="M16.4694 5.17845C17.4722 3.9462 18.1541 2.26345 17.9536 0.554199C16.5095 0.620449 14.7044 1.54795 13.6614 2.7537C12.7388 3.8137 11.9231 5.5627 12.1371 7.2057C13.755 7.32495 15.4264 6.39745 16.4694 5.17845Z" fill="white"/>
<path d="M43.56 24.9606H37.2354L35.7111 29.4126H33.0369L39.0272 12.9561H41.8084L47.7987 29.4126H45.0709L43.56 24.9606ZM37.8906 22.9068H42.9048L40.4311 15.6856H40.3643L37.8906 22.9068Z" fill="white"/>
<path d="M60.7545 23.4101C60.7545 27.1333 58.7354 29.5316 55.7002 29.5316C53.9753 29.5316 52.6114 28.7631 51.8894 27.4381H51.8359V33.3741H49.3489V17.4078H51.7557V19.4086H51.7958C52.4911 18.1233 53.9619 17.2886 55.6467 17.2886C58.7354 17.2886 60.7545 19.6868 60.7545 23.4101ZM58.2006 23.4101C58.2006 20.9853 56.9303 19.3821 55.0049 19.3821C53.1062 19.3821 51.8225 21.0118 51.8225 23.4101C51.8225 25.8216 53.1062 27.4513 55.0049 27.4513C56.9303 27.4513 58.2006 25.8613 58.2006 23.4101Z" fill="white"/>
<path d="M74.0751 23.4101C74.0751 27.1333 72.0561 29.5316 69.0208 29.5316C67.2959 29.5316 65.9321 28.7631 65.21 27.4381H65.1565V33.3741H62.6829V17.4078H65.0897V19.4086H65.1298C65.8251 18.1233 67.2959 17.2886 68.9807 17.2886C72.0561 17.2886 74.0751 19.6868 74.0751 23.4101ZM71.5212 23.4101C71.5212 20.9853 70.251 19.3821 68.3255 19.3821C66.4268 19.3821 65.1432 21.0118 65.1432 23.4101C65.1432 25.8216 66.4268 27.4513 68.3255 27.4513C70.2643 27.4513 71.5212 25.8613 71.5212 23.4101Z" fill="white"/>
<path d="M82.8835 24.828C83.0707 26.4577 84.6619 27.531 86.8547 27.531C88.954 27.531 90.4516 26.4577 90.4516 24.987C90.4516 23.715 89.5423 22.9465 87.3896 22.4165L85.2368 21.8997C82.1882 21.171 80.7708 19.7532 80.7708 17.461C80.7708 14.6255 83.2713 12.6777 86.8146 12.6777C90.3179 12.6777 92.7247 14.6255 92.8049 17.461H90.2911C90.144 15.818 88.7668 14.8242 86.7745 14.8242C84.7822 14.8242 83.405 15.8312 83.405 17.2887C83.405 18.4547 84.2741 19.1305 86.4135 19.6605L88.2453 20.111C91.655 20.906 93.0723 22.2707 93.0723 24.669C93.0723 27.743 90.5987 29.6775 86.6675 29.6775C82.9905 29.6775 80.5034 27.796 80.343 24.8147H82.8835V24.828Z" fill="white"/>
<path d="M98.4493 14.5728V17.4083H100.749V19.356H98.4493V25.9678C98.4493 27.0013 98.9039 27.4783 99.9202 27.4783C100.174 27.4783 100.575 27.4385 100.736 27.4253V29.3598C100.455 29.426 99.9068 29.479 99.3586 29.479C96.9116 29.479 95.9489 28.5648 95.9489 26.246V19.3693H94.1839V17.4215H95.9489V14.5728H98.4493Z" fill="white"/>
<path d="M102.071 23.4102C102.071 19.634 104.318 17.2622 107.808 17.2622C111.324 17.2622 113.544 19.634 113.544 23.4102C113.544 27.1997 111.324 29.5582 107.808 29.5582C104.304 29.5582 102.071 27.1997 102.071 23.4102ZM111.03 23.4102C111.03 20.8265 109.827 19.2895 107.821 19.2895C105.815 19.2895 104.612 20.8265 104.612 23.4102C104.612 26.0072 105.802 27.531 107.821 27.531C109.84 27.531 111.03 26.0072 111.03 23.4102Z" fill="white"/>
<path d="M115.619 17.4084H117.986V19.4489H118.04C118.414 18.0974 119.524 17.2759 120.954 17.2759C121.316 17.2759 121.61 17.3289 121.81 17.3686V19.6741C121.61 19.5946 121.182 19.5284 120.7 19.5284C119.096 19.5284 118.106 20.6016 118.106 22.2844V29.3996H115.619V17.4084Z" fill="white"/>
<path d="M133.255 25.888C132.921 28.061 130.782 29.5582 128.041 29.5582C124.524 29.5582 122.331 27.2262 122.331 23.4632C122.331 19.7002 124.524 17.2622 127.934 17.2622C131.277 17.2622 133.389 19.5412 133.389 23.185V24.033H124.845V24.1787C124.845 26.2325 126.142 27.5707 128.108 27.5707C129.485 27.5707 130.568 26.9215 130.902 25.888H133.255ZM124.858 22.2972H130.915C130.862 20.4555 129.672 19.2497 127.947 19.2497C126.236 19.263 124.992 20.4952 124.858 22.2972Z" fill="white"/>
</svg>
