<svg width="102" height="34" fill="none" xmlns="http://www.w3.org/2000/svg"><path d="M1.91 9.765h-.878V7.403h.7c.616-.529.912-1.422.9-2.702V1.223h4.753v6.18h.794v2.362h-.877V8.273H1.909v1.492zm1.647-5.053c.011 1.117-.214 2.01-.676 2.703h3.591V2.092H3.557v2.62zm11.746 2.646c-.7.717-1.564 1.07-2.607 1.07-1.043 0-1.908-.353-2.608-1.07-.699-.717-1.043-1.586-1.043-2.608 0-1.023.344-1.904 1.043-2.609.7-.717 1.565-1.07 2.608-1.07 1.03 0 1.896.353 2.607 1.07.7.717 1.055 1.586 1.055 2.609 0 1.034-.355 1.903-1.055 2.608zm-4.54-.587c.522.528 1.174.787 1.933.787.758 0 1.41-.259 1.932-.787.521-.53.794-1.199.794-2.021 0-.823-.261-1.493-.794-2.021-.522-.53-1.162-.8-1.932-.8-.759 0-1.41.259-1.932.788-.521.54-.782 1.21-.782 2.033 0 .822.26 1.492.782 2.02zm10.193 1.657c-1.043 0-1.92-.353-2.63-1.058-.712-.705-1.067-1.574-1.067-2.632 0-1.045.355-1.927 1.066-2.632.712-.705 1.588-1.057 2.631-1.057 1.067 0 1.944.388 2.608 1.151l-.64.611c-.486-.599-1.138-.893-1.98-.893-.77 0-1.433.259-1.967.776-.533.517-.794 1.198-.794 2.033 0 .834.26 1.515.794 2.032.534.517 1.185.776 1.968.776.853 0 1.576-.34 2.18-1.022l.64.634c-.32.388-.735.693-1.22.917-.486.258-1.02.364-1.589.364zm6.517-.155h-.913v-6.18h-1.99v-.87h4.882v.87h-1.99v6.18h.01zm8.261-7.05l-2.69 5.945c-.367.834-.925 1.257-1.66 1.257-.213 0-.45-.047-.71-.152l.237-.835a.99.99 0 00.474.13c.213 0 .379-.036.497-.118.119-.082.226-.235.32-.446l.261-.564-2.394-5.217h1.079l1.754 4.042h.035l1.719-4.042h1.078zm1.03 7.05v-7.05h5.144v7.05h-.913v-6.18h-3.318v6.18h-.913zm6.768 0v-7.05h.913v3.02H48v-3.02h.913v7.05H48V5.088h-3.555v3.185h-.913zm12.837-.915c-.7.717-1.565 1.07-2.608 1.07-1.043 0-1.908-.353-2.607-1.07-.7-.717-1.043-1.586-1.043-2.608 0-1.023.344-1.904 1.043-2.609.7-.717 1.564-1.07 2.607-1.07 1.031 0 1.897.353 2.608 1.07.699.717 1.055 1.586 1.055 2.609-.012 1.034-.356 1.903-1.055 2.608zm-4.54-.587c.522.528 1.174.787 1.932.787.759 0 1.41-.259 1.932-.787.522-.53.794-1.199.794-2.021 0-.823-.26-1.493-.794-2.021a2.643 2.643 0 00-1.932-.8c-.758 0-1.41.259-1.931.788-.534.54-.795 1.21-.795 2.033 0 .822.261 1.492.795 2.02zm9.315 1.502v-7.05h2.572a2.14 2.14 0 011.446.54c.414.376.616.834.616 1.375 0 .34-.083.634-.261.881a1.594 1.594 0 01-.7.576v.035c.356.118.64.317.866.611.225.294.344.623.344.999 0 .576-.214 1.057-.64 1.433-.439.412-.948.6-1.53.6h-2.713zm.912-4.03h1.66c.343 0 .616-.118.83-.341a1.041 1.041 0 00-.001-1.48 1.018 1.018 0 00-.794-.342h-1.695v2.162zm0 3.16h1.837c.356 0 .64-.117.854-.364.213-.247.332-.505.332-.8 0-.293-.107-.551-.344-.786a1.183 1.183 0 00-.89-.365h-1.8v2.315h.011z" fill="#fff" stroke="#fff" stroke-width=".2" stroke-miterlimit="10"/><path d="M32.758 18.557c-2.785 0-5.06 2.103-5.06 4.994 0 2.879 2.275 4.994 5.06 4.994 2.785 0 5.06-2.115 5.06-4.994 0-2.89-2.275-4.994-5.06-4.994zm0 8.025c-1.53 0-2.845-1.245-2.845-3.031 0-1.798 1.316-3.032 2.845-3.032 1.529 0 2.844 1.234 2.844 3.032 0 1.786-1.327 3.031-2.844 3.031zm-11.046-8.025c-2.785 0-5.06 2.103-5.06 4.994 0 2.879 2.275 4.994 5.06 4.994 2.785 0 5.06-2.115 5.06-4.994 0-2.89-2.275-4.994-5.06-4.994zm0 8.025c-1.529 0-2.845-1.245-2.845-3.031 0-1.798 1.316-3.032 2.845-3.032 1.529 0 2.844 1.234 2.844 3.032 0 1.786-1.315 3.031-2.844 3.031zM8.58 20.096v2.115h5.12c-.154 1.187-.557 2.068-1.161 2.668-.747.74-1.909 1.55-3.947 1.55-3.153 0-5.618-2.514-5.618-5.64 0-3.125 2.465-5.64 5.618-5.64 1.695 0 2.94.659 3.852 1.516l1.505-1.492c-1.28-1.21-2.975-2.138-5.369-2.138-4.314 0-7.94 3.478-7.94 7.766 0 4.277 3.626 7.767 7.94 7.767 2.335 0 4.089-.752 5.464-2.174 1.41-1.398 1.849-3.372 1.849-4.958 0-.494-.036-.952-.119-1.328H8.58v-.012zm53.7 1.645c-.414-1.116-1.694-3.184-4.313-3.184-2.596 0-4.753 2.021-4.753 4.994 0 2.796 2.133 4.994 5.002 4.994 2.31 0 3.65-1.399 4.195-2.21l-1.718-1.14c-.57.835-1.351 1.387-2.477 1.387s-1.932-.517-2.442-1.515l6.744-2.762-.237-.564zm-6.873 1.669c-.06-1.927 1.505-2.914 2.63-2.914.878 0 1.624.435 1.873 1.057l-4.503 1.857zm-5.476 4.84h2.216V13.564h-2.216v14.688zm-3.627-8.577h-.083c-.497-.587-1.445-1.116-2.654-1.116-2.525 0-4.836 2.197-4.836 5.017 0 2.797 2.311 4.982 4.836 4.982 1.197 0 2.157-.528 2.654-1.14h.072v.717c0 1.916-1.032 2.938-2.69 2.938-1.352 0-2.193-.964-2.537-1.774l-1.932.799c.557 1.327 2.027 2.949 4.468 2.949 2.596 0 4.788-1.516 4.788-5.205v-8.977h-2.097v.81h.011zm-2.548 6.91c-1.529 0-2.809-1.27-2.809-3.009 0-1.762 1.28-3.043 2.81-3.043 1.505 0 2.69 1.293 2.69 3.043.012 1.74-1.174 3.008-2.69 3.008zm28.907-13.02h-5.298v14.688h2.217v-5.57h3.093c2.453 0 4.86-1.762 4.86-4.559 0-2.796-2.43-4.559-4.872-4.559zm.047 7.074h-3.14v-5.04h3.14a2.558 2.558 0 012.596 2.514c0 1.151-.936 2.526-2.596 2.526zm13.677-2.103c-1.6 0-3.259.705-3.946 2.244l1.967.81c.415-.81 1.197-1.08 2.015-1.08 1.15 0 2.311.681 2.323 1.891v.153c-.403-.223-1.256-.564-2.311-.564-2.122 0-4.267 1.152-4.267 3.302 0 1.962 1.73 3.231 3.674 3.231 1.482 0 2.311-.658 2.821-1.433h.071v1.14h2.133v-5.629c.012-2.608-1.955-4.065-4.48-4.065zm-.272 8.048c-.723 0-1.73-.364-1.73-1.245 0-1.128 1.256-1.563 2.346-1.563.972 0 1.434.212 2.015.494-.166 1.35-1.351 2.314-2.631 2.314zm12.54-7.731l-2.537 6.368h-.071l-2.631-6.368h-2.383l3.947 8.906-2.252 4.947h2.311l6.08-13.853h-2.465zm-19.912 9.4h2.216V13.563h-2.216v14.688z" fill="#fff"/></svg>