<svg width="102" height="34" viewBox="0 0 102 34" fill="none" xmlns="http://www.w3.org/2000/svg">
<path d="M1.90916 9.76491H1.03212V7.40316H1.73138C2.34767 6.87441 2.64397 5.98141 2.63212 4.70066V1.22266H7.3847V7.40316H8.17877V9.76491H7.30174V8.27266H1.90916V9.76491ZM3.55656 4.71241C3.56841 5.82866 3.34323 6.72166 2.88101 7.41491H6.47211V2.09216H3.55656V4.71241Z" fill="white" stroke="white" stroke-width="0.2" stroke-miterlimit="10"/>
<path d="M15.3032 7.35803C14.6039 8.07478 13.7388 8.42728 12.6958 8.42728C11.6528 8.42728 10.7876 8.07478 10.0884 7.35803C9.38913 6.64128 9.04543 5.77178 9.04543 4.74953C9.04543 3.72728 9.38913 2.84603 10.0884 2.14103C10.7876 1.42428 11.6528 1.07178 12.6958 1.07178C13.7269 1.07178 14.5921 1.42428 15.3032 2.14103C16.0025 2.85778 16.358 3.72728 16.358 4.74953C16.358 5.78353 16.0025 6.65303 15.3032 7.35803ZM10.7639 6.77053C11.2854 7.29928 11.9373 7.55778 12.6958 7.55778C13.4543 7.55778 14.1062 7.29928 14.6277 6.77053C15.1491 6.24178 15.4217 5.57203 15.4217 4.74953C15.4217 3.92703 15.161 3.25728 14.6277 2.72853C14.1062 2.19978 13.4662 1.92953 12.6958 1.92953C11.9373 1.92953 11.2854 2.18803 10.7639 2.71678C10.2425 3.25728 9.98172 3.92703 9.98172 4.74953C9.98172 5.57203 10.2425 6.24178 10.7639 6.77053Z" fill="white" stroke="white" stroke-width="0.2" stroke-miterlimit="10"/>
<path d="M20.9565 8.42782C19.9135 8.42782 19.0365 8.07532 18.3253 7.37032C17.6142 6.66532 17.2587 5.79582 17.2587 4.73832C17.2587 3.69257 17.6142 2.81133 18.3253 2.10633C19.0365 1.40133 19.9135 1.04883 20.9565 1.04883C22.0231 1.04883 22.9002 1.43658 23.5639 2.20033L22.9239 2.81133C22.4379 2.21208 21.7861 1.91833 20.9446 1.91833C20.1742 1.91833 19.5105 2.17683 18.9772 2.69383C18.4439 3.21083 18.1831 3.89232 18.1831 4.72657C18.1831 5.56082 18.4439 6.24232 18.9772 6.75932C19.5105 7.27632 20.1624 7.53482 20.9446 7.53482C21.7979 7.53482 22.5209 7.19407 23.1253 6.51257L23.7653 7.14707C23.4453 7.53482 23.0305 7.84032 22.5446 8.06357C22.0587 8.32207 21.5253 8.42782 20.9565 8.42782Z" fill="white" stroke="white" stroke-width="0.2" stroke-miterlimit="10"/>
<path d="M27.4729 8.27266H26.5603V2.09216H24.5692V1.22266H29.4522V2.09216H27.4611V8.27266H27.4729Z" fill="white" stroke="white" stroke-width="0.2" stroke-miterlimit="10"/>
<path d="M35.7343 1.22266L33.0439 7.16816C32.6765 8.00241 32.1194 8.4254 31.3846 8.4254C31.1713 8.4254 30.9343 8.3784 30.6735 8.27265L30.9106 7.4384C31.0646 7.52065 31.2187 7.56765 31.3846 7.56765C31.598 7.56765 31.7639 7.5324 31.8824 7.45015C32.0009 7.36791 32.1076 7.21516 32.2024 7.00365L32.4631 6.43965L30.0691 1.22266H31.1476L32.9017 5.26465H32.9372L34.6557 1.22266H35.7343Z" fill="white" stroke="white" stroke-width="0.2" stroke-miterlimit="10"/>
<path d="M36.7641 8.27266V1.22266H41.9078V8.27266H40.9952V2.09216H37.6767V8.27266H36.7641Z" fill="white" stroke="white" stroke-width="0.2" stroke-miterlimit="10"/>
<path d="M43.5322 8.27266V1.22266H44.4448V4.24241H48.0003V1.22266H48.9129V8.27266H48.0003V5.08841H44.4448V8.27266H43.5322Z" fill="white" stroke="white" stroke-width="0.2" stroke-miterlimit="10"/>
<path d="M56.3688 7.35803C55.6695 8.07478 54.8043 8.42728 53.7614 8.42728C52.7184 8.42728 51.8532 8.07478 51.154 7.35803C50.4547 6.64128 50.111 5.77178 50.111 4.74953C50.111 3.72728 50.4547 2.84603 51.154 2.14103C51.8532 1.42428 52.7184 1.07178 53.7614 1.07178C54.7925 1.07178 55.6577 1.42428 56.3688 2.14103C57.068 2.85778 57.4236 3.72728 57.4236 4.74953C57.4117 5.78353 57.068 6.65303 56.3688 7.35803ZM51.8295 6.77053C52.351 7.29928 53.0028 7.55778 53.7614 7.55778C54.5199 7.55778 55.1717 7.29928 55.6932 6.77053C56.2147 6.24178 56.4873 5.57203 56.4873 4.74953C56.4873 3.92703 56.2265 3.25728 55.6932 2.72853C55.1599 2.19978 54.5199 1.92953 53.7614 1.92953C53.0028 1.92953 52.351 2.18803 51.8295 2.71678C51.2962 3.25728 51.0354 3.92703 51.0354 4.74953C51.0354 5.57203 51.2962 6.24178 51.8295 6.77053Z" fill="white" stroke="white" stroke-width="0.2" stroke-miterlimit="10"/>
<path d="M61.1437 8.27266V1.22266H63.7156C64.2726 1.22266 64.7585 1.41066 65.1615 1.76316C65.5763 2.13916 65.7778 2.59741 65.7778 3.13791C65.7778 3.47866 65.6948 3.77241 65.517 4.01916C65.3393 4.27766 65.1141 4.46566 64.8178 4.59491V4.63016C65.1733 4.74766 65.4578 4.94741 65.683 5.24116C65.9082 5.53491 66.0267 5.86391 66.0267 6.23991C66.0267 6.81566 65.8133 7.29741 65.3867 7.67341C64.9482 8.08465 64.4385 8.27266 63.8578 8.27266H61.1437ZM62.0563 4.24241H63.7156C64.0593 4.24241 64.3319 4.12491 64.5452 3.90166C64.7585 3.67841 64.8533 3.43166 64.8533 3.16141C64.8533 2.89116 64.7585 2.64441 64.5452 2.42116C64.3437 2.19791 64.083 2.08041 63.7511 2.08041H62.0563V4.24241ZM62.0563 7.40316H63.8933C64.2489 7.40316 64.5333 7.28566 64.7467 7.03891C64.96 6.79216 65.0785 6.53366 65.0785 6.23991C65.0785 5.94616 64.9719 5.68766 64.7348 5.45266C64.5096 5.21766 64.2133 5.08841 63.8459 5.08841H62.0444V7.40316H62.0563Z" fill="white" stroke="white" stroke-width="0.2" stroke-miterlimit="10"/>
<path d="M32.7578 18.5572C29.9726 18.5572 27.6971 20.6604 27.6971 23.5509C27.6971 26.4297 29.9726 28.5447 32.7578 28.5447C35.543 28.5447 37.8186 26.4297 37.8186 23.5509C37.8186 20.6604 35.543 18.5572 32.7578 18.5572ZM32.7578 26.5824C31.2289 26.5824 29.9134 25.3369 29.9134 23.5509C29.9134 21.7532 31.2289 20.5194 32.7578 20.5194C34.2867 20.5194 35.6023 21.7532 35.6023 23.5509C35.6023 25.3369 34.2749 26.5824 32.7578 26.5824ZM21.7119 18.5572C18.9267 18.5572 16.6511 20.6604 16.6511 23.5509C16.6511 26.4297 18.9267 28.5447 21.7119 28.5447C24.4971 28.5447 26.7726 26.4297 26.7726 23.5509C26.7726 20.6604 24.4971 18.5572 21.7119 18.5572ZM21.7119 26.5824C20.183 26.5824 18.8674 25.3369 18.8674 23.5509C18.8674 21.7532 20.183 20.5194 21.7119 20.5194C23.2408 20.5194 24.5563 21.7532 24.5563 23.5509C24.5563 25.3369 23.2408 26.5824 21.7119 26.5824ZM8.58004 20.0964V22.2114H13.7C13.546 23.3982 13.143 24.2794 12.5386 24.8787C11.7919 25.6189 10.6304 26.4297 8.59189 26.4297C5.4393 26.4297 2.97411 23.9152 2.97411 20.7897C2.97411 17.6642 5.4393 15.1497 8.59189 15.1497C10.2867 15.1497 11.5311 15.8077 12.4437 16.6654L13.9489 15.1732C12.6689 13.9629 10.9741 13.0347 8.58004 13.0347C4.26596 13.0347 0.639297 16.5127 0.639297 20.8014C0.639297 25.0784 4.26596 28.5682 8.58004 28.5682C10.9149 28.5682 12.6689 27.8162 14.0437 26.3944C15.4541 24.9962 15.8926 23.0222 15.8926 21.4359C15.8926 20.9424 15.8571 20.4842 15.7741 20.1082H8.58004V20.0964ZM62.2808 21.7414C61.866 20.6252 60.586 18.5572 57.9667 18.5572C55.3712 18.5572 53.2141 20.5782 53.2141 23.5509C53.2141 26.3474 55.3474 28.5447 58.2156 28.5447C60.5267 28.5447 61.866 27.1464 62.4112 26.3357L60.6926 25.1959C60.1237 26.0302 59.3415 26.5824 58.2156 26.5824C57.0897 26.5824 56.2837 26.0654 55.7741 25.0667L62.5178 22.3054L62.2808 21.7414ZM55.4067 23.4099C55.3474 21.4829 56.9119 20.4959 58.0378 20.4959C58.9149 20.4959 59.6615 20.9307 59.9104 21.5534L55.4067 23.4099ZM49.9311 28.2509H52.1474V13.5634H49.9311V28.2509ZM46.3045 19.6734H46.2215C45.7237 19.0859 44.7756 18.5572 43.5667 18.5572C41.0423 18.5572 38.7311 20.7544 38.7311 23.5744C38.7311 26.3709 41.0423 28.5564 43.5667 28.5564C44.7637 28.5564 45.7237 28.0277 46.2215 27.4167H46.2926V28.1334C46.2926 30.0487 45.2615 31.0709 43.6023 31.0709C42.2511 31.0709 41.4097 30.1074 41.066 29.2967L39.1341 30.0957C39.6911 31.4234 41.1608 33.0449 43.6023 33.0449C46.1978 33.0449 48.3904 31.5292 48.3904 27.8397V18.8627H46.2926V19.6734H46.3045ZM43.7563 26.5824C42.2274 26.5824 40.9474 25.3134 40.9474 23.5744C40.9474 21.8119 42.2274 20.5312 43.7563 20.5312C45.2615 20.5312 46.4467 21.8237 46.4467 23.5744C46.4586 25.3134 45.2734 26.5824 43.7563 26.5824ZM72.663 13.5634H67.3652V28.2509H69.5815V22.6814H72.6749C75.1282 22.6814 77.5341 20.9189 77.5341 18.1224C77.5341 15.3259 75.1045 13.5634 72.663 13.5634ZM72.7104 20.6369H69.5697V15.5962H72.7104C74.3697 15.5962 75.306 16.9592 75.306 18.1107C75.306 19.2622 74.3697 20.6369 72.7104 20.6369ZM86.3874 18.5337C84.7874 18.5337 83.1282 19.2387 82.4408 20.7779L84.4082 21.5887C84.823 20.7779 85.6052 20.5077 86.423 20.5077C87.5726 20.5077 88.7341 21.1892 88.746 22.3994V22.5522C88.343 22.3289 87.4897 21.9882 86.4349 21.9882C84.3134 21.9882 82.1682 23.1397 82.1682 25.2899C82.1682 27.2522 83.8986 28.5212 85.8423 28.5212C87.3237 28.5212 88.1534 27.8632 88.663 27.0877H88.7341V28.2274H90.8674V22.5992C90.8793 19.9907 88.9119 18.5337 86.3874 18.5337ZM86.1149 26.5824C85.3919 26.5824 84.3845 26.2182 84.3845 25.3369C84.3845 24.2089 85.6408 23.7742 86.7311 23.7742C87.703 23.7742 88.1652 23.9857 88.746 24.2677C88.58 25.6189 87.3949 26.5824 86.1149 26.5824ZM98.6541 18.8509L96.1178 25.2194H96.0467L93.4156 18.8509H91.0334L94.98 27.7574L92.7282 32.7042H95.0393L101.119 18.8509H98.6541ZM78.743 28.2509H80.9593V13.5634H78.743V28.2509Z" fill="white"/>
</svg>
