<svg width="29" height="31" fill="none" xmlns="http://www.w3.org/2000/svg"><path d="M1.374.859c-.344.364-.545.928-.545 1.645v25.99c0 .73.201 1.293.545 1.646l.083.082L16.14 15.675v-.352L1.457.776 1.374.86z" fill="url(#paint0_linear)"/><path d="M21.034 20.529l-4.894-4.853v-.353l4.894-4.852.107.059 5.796 3.266c1.659.928 1.659 2.456 0 3.396l-5.796 3.266-.107.07z" fill="url(#paint1_linear)"/><path d="M21.14 20.467l-5.001-4.97L1.37 30.137c.545.576 1.446.647 2.465.071l17.304-9.74z" fill="url(#paint2_linear)"/><path d="M21.142 10.54L3.826.788C2.807.212 1.906.283 1.361.858l14.78 14.64 5-4.958z" fill="url(#paint3_linear)"/><path opacity=".2" d="M21.037 20.352l-17.21 9.694c-.96.54-1.824.505-2.37.012l-.083.082.083.082c.557.493 1.41.529 2.37-.012l17.316-9.752-.106-.106z" fill="#000"/><path opacity=".12" d="M1.374 29.977c-.344-.365-.545-.929-.545-1.646v.177c0 .728.201 1.292.545 1.645l.083-.082-.083-.095zm25.564-12.952l-5.915 3.325.107.106 5.796-3.267c.83-.47 1.244-1.08 1.244-1.692-.06.552-.474 1.105-1.233 1.528z" fill="#000"/><path opacity=".25" d="M3.826.953l23.11 13.019c.747.423 1.174.963 1.245 1.527 0-.61-.415-1.233-1.244-1.692L3.826.788C2.166-.14.816.636.816 2.516v.176C.815.8 2.177.025 3.825.952z" fill="#fff"/><defs><linearGradient id="paint0_linear" x1="14.837" y1="2.233" x2="-4.882" y2="22.123" gradientUnits="userSpaceOnUse"><stop stop-color="#00A0FF"/><stop offset=".007" stop-color="#00A1FF"/><stop offset=".26" stop-color="#00BEFF"/><stop offset=".512" stop-color="#00D2FF"/><stop offset=".76" stop-color="#00DFFF"/><stop offset="1" stop-color="#00E3FF"/></linearGradient><linearGradient id="paint1_linear" x1="29.099" y1="15.502" x2=".421" y2="15.502" gradientUnits="userSpaceOnUse"><stop stop-color="#FFE000"/><stop offset=".409" stop-color="#FFBD00"/><stop offset=".775" stop-color="orange"/><stop offset="1" stop-color="#FF9C00"/></linearGradient><linearGradient id="paint2_linear" x1="18.422" y1="18.195" x2="-8.318" y2="45.167" gradientUnits="userSpaceOnUse"><stop stop-color="#FF3A44"/><stop offset="1" stop-color="#C31162"/></linearGradient><linearGradient id="paint3_linear" x1="-2.352" y1="-7.794" x2="9.589" y2="4.25" gradientUnits="userSpaceOnUse"><stop stop-color="#32A071"/><stop offset=".069" stop-color="#2DA771"/><stop offset=".476" stop-color="#15CF74"/><stop offset=".801" stop-color="#06E775"/><stop offset="1" stop-color="#00F076"/></linearGradient></defs></svg>