<svg width="67" height="10" fill="none" xmlns="http://www.w3.org/2000/svg"><path d="M1.91 9.765h-.878V7.403h.7c.616-.529.912-1.422.9-2.702V1.223h4.753v6.18h.794v2.362h-.877V8.273H1.909v1.492zm1.647-5.053c.011 1.117-.214 2.01-.676 2.703h3.591V2.092H3.557v2.62zm11.746 2.646c-.7.717-1.564 1.07-2.607 1.07-1.043 0-1.908-.353-2.608-1.07-.699-.717-1.043-1.586-1.043-2.608 0-1.023.344-1.904 1.043-2.609.7-.717 1.565-1.07 2.608-1.07 1.03 0 1.896.353 2.607 1.07.7.717 1.055 1.586 1.055 2.609 0 1.034-.355 1.903-1.055 2.608zm-4.54-.587c.522.528 1.174.787 1.933.787.758 0 1.41-.259 1.932-.787.521-.53.794-1.199.794-2.021 0-.823-.261-1.493-.794-2.021-.522-.53-1.162-.8-1.932-.8-.759 0-1.41.259-1.932.788-.521.54-.782 1.21-.782 2.033 0 .822.26 1.492.782 2.02zm10.193 1.657c-1.043 0-1.92-.353-2.63-1.058-.712-.705-1.067-1.574-1.067-2.632 0-1.045.355-1.927 1.066-2.632.712-.705 1.588-1.057 2.631-1.057 1.067 0 1.944.388 2.608 1.151l-.64.611c-.486-.599-1.138-.893-1.98-.893-.77 0-1.433.259-1.967.776-.533.517-.794 1.198-.794 2.033 0 .834.26 1.515.794 2.032.534.517 1.185.776 1.968.776.853 0 1.576-.34 2.18-1.022l.64.634c-.32.388-.735.693-1.22.917-.486.258-1.02.364-1.589.364zm6.517-.155h-.913v-6.18h-1.99v-.87h4.882v.87h-1.99v6.18h.01zm8.261-7.05l-2.69 5.945c-.367.834-.925 1.257-1.66 1.257-.213 0-.45-.047-.71-.152l.237-.835a.99.99 0 00.474.13c.213 0 .379-.036.497-.118.119-.082.226-.235.32-.446l.261-.564-2.394-5.217h1.079l1.754 4.042h.035l1.719-4.042h1.078zm1.03 7.05v-7.05h5.144v7.05h-.913v-6.18h-3.318v6.18h-.913zm6.768 0v-7.05h.913v3.02H48v-3.02h.913v7.05H48V5.088h-3.555v3.185h-.913zm12.837-.915c-.7.717-1.565 1.07-2.608 1.07-1.043 0-1.908-.353-2.607-1.07-.7-.717-1.043-1.586-1.043-2.608 0-1.023.344-1.904 1.043-2.609.7-.717 1.564-1.07 2.607-1.07 1.031 0 1.897.353 2.608 1.07.699.717 1.055 1.586 1.055 2.609-.012 1.034-.356 1.903-1.055 2.608zm-4.54-.587c.522.528 1.174.787 1.932.787.759 0 1.41-.259 1.932-.787.522-.53.794-1.199.794-2.021 0-.823-.26-1.493-.794-2.021a2.643 2.643 0 00-1.932-.8c-.758 0-1.41.259-1.931.788-.534.54-.795 1.21-.795 2.033 0 .822.261 1.492.795 2.02zm9.315 1.502v-7.05h2.572a2.14 2.14 0 011.446.54c.414.376.616.834.616 1.375 0 .34-.083.634-.261.881a1.594 1.594 0 01-.7.576v.035c.356.118.64.317.866.611.225.294.344.623.344.999 0 .576-.214 1.057-.64 1.433-.439.412-.948.6-1.53.6h-2.713zm.912-4.03h1.66c.343 0 .616-.118.83-.341a1.041 1.041 0 00-.001-1.48 1.018 1.018 0 00-.794-.342h-1.695v2.162zm0 3.16h1.837c.356 0 .64-.117.854-.364.213-.247.332-.505.332-.8 0-.293-.107-.551-.344-.786a1.183 1.183 0 00-.89-.365h-1.8v2.315h.011z" fill="#fff" stroke="#fff" stroke-width=".2" stroke-miterlimit="10"/></svg>