<svg width="67" height="10" viewBox="0 0 67 10" fill="none" xmlns="http://www.w3.org/2000/svg">
<path d="M1.90916 9.76491H1.03212V7.40316H1.73138C2.34767 6.87441 2.64397 5.98141 2.63212 4.70066V1.22266H7.3847V7.40316H8.17877V9.76491H7.30174V8.27266H1.90916V9.76491ZM3.55656 4.71241C3.56841 5.82866 3.34323 6.72166 2.88101 7.41491H6.47211V2.09216H3.55656V4.71241Z" fill="white" stroke="white" stroke-width="0.2" stroke-miterlimit="10"/>
<path d="M15.3032 7.35803C14.6039 8.07478 13.7388 8.42728 12.6958 8.42728C11.6528 8.42728 10.7876 8.07478 10.0884 7.35803C9.38913 6.64128 9.04543 5.77178 9.04543 4.74953C9.04543 3.72728 9.38913 2.84603 10.0884 2.14103C10.7876 1.42428 11.6528 1.07178 12.6958 1.07178C13.7269 1.07178 14.5921 1.42428 15.3032 2.14103C16.0025 2.85778 16.358 3.72728 16.358 4.74953C16.358 5.78353 16.0025 6.65303 15.3032 7.35803ZM10.7639 6.77053C11.2854 7.29928 11.9373 7.55778 12.6958 7.55778C13.4543 7.55778 14.1062 7.29928 14.6277 6.77053C15.1491 6.24178 15.4217 5.57203 15.4217 4.74953C15.4217 3.92703 15.161 3.25728 14.6277 2.72853C14.1062 2.19978 13.4662 1.92953 12.6958 1.92953C11.9373 1.92953 11.2854 2.18803 10.7639 2.71678C10.2425 3.25728 9.98172 3.92703 9.98172 4.74953C9.98172 5.57203 10.2425 6.24178 10.7639 6.77053Z" fill="white" stroke="white" stroke-width="0.2" stroke-miterlimit="10"/>
<path d="M20.9565 8.42782C19.9135 8.42782 19.0365 8.07532 18.3253 7.37032C17.6142 6.66532 17.2587 5.79582 17.2587 4.73832C17.2587 3.69257 17.6142 2.81133 18.3253 2.10633C19.0365 1.40133 19.9135 1.04883 20.9565 1.04883C22.0231 1.04883 22.9002 1.43658 23.5639 2.20033L22.9239 2.81133C22.4379 2.21208 21.7861 1.91833 20.9446 1.91833C20.1742 1.91833 19.5105 2.17683 18.9772 2.69383C18.4439 3.21083 18.1831 3.89232 18.1831 4.72657C18.1831 5.56082 18.4439 6.24232 18.9772 6.75932C19.5105 7.27632 20.1624 7.53482 20.9446 7.53482C21.7979 7.53482 22.5209 7.19407 23.1253 6.51257L23.7653 7.14707C23.4453 7.53482 23.0305 7.84032 22.5446 8.06357C22.0587 8.32207 21.5253 8.42782 20.9565 8.42782Z" fill="white" stroke="white" stroke-width="0.2" stroke-miterlimit="10"/>
<path d="M27.4729 8.27266H26.5603V2.09216H24.5692V1.22266H29.4522V2.09216H27.4611V8.27266H27.4729Z" fill="white" stroke="white" stroke-width="0.2" stroke-miterlimit="10"/>
<path d="M35.7343 1.22266L33.0439 7.16816C32.6765 8.00241 32.1194 8.4254 31.3846 8.4254C31.1713 8.4254 30.9343 8.3784 30.6735 8.27265L30.9106 7.4384C31.0646 7.52065 31.2187 7.56765 31.3846 7.56765C31.598 7.56765 31.7639 7.5324 31.8824 7.45015C32.0009 7.36791 32.1076 7.21516 32.2024 7.00365L32.4631 6.43965L30.0691 1.22266H31.1476L32.9017 5.26465H32.9372L34.6557 1.22266H35.7343Z" fill="white" stroke="white" stroke-width="0.2" stroke-miterlimit="10"/>
<path d="M36.7641 8.27266V1.22266H41.9078V8.27266H40.9952V2.09216H37.6767V8.27266H36.7641Z" fill="white" stroke="white" stroke-width="0.2" stroke-miterlimit="10"/>
<path d="M43.5322 8.27266V1.22266H44.4448V4.24241H48.0003V1.22266H48.9129V8.27266H48.0003V5.08841H44.4448V8.27266H43.5322Z" fill="white" stroke="white" stroke-width="0.2" stroke-miterlimit="10"/>
<path d="M56.3688 7.35803C55.6695 8.07478 54.8043 8.42728 53.7614 8.42728C52.7184 8.42728 51.8532 8.07478 51.154 7.35803C50.4547 6.64128 50.111 5.77178 50.111 4.74953C50.111 3.72728 50.4547 2.84603 51.154 2.14103C51.8532 1.42428 52.7184 1.07178 53.7614 1.07178C54.7925 1.07178 55.6577 1.42428 56.3688 2.14103C57.068 2.85778 57.4236 3.72728 57.4236 4.74953C57.4117 5.78353 57.068 6.65303 56.3688 7.35803ZM51.8295 6.77053C52.351 7.29928 53.0028 7.55778 53.7614 7.55778C54.5199 7.55778 55.1717 7.29928 55.6932 6.77053C56.2147 6.24178 56.4873 5.57203 56.4873 4.74953C56.4873 3.92703 56.2265 3.25728 55.6932 2.72853C55.1599 2.19978 54.5199 1.92953 53.7614 1.92953C53.0028 1.92953 52.351 2.18803 51.8295 2.71678C51.2962 3.25728 51.0354 3.92703 51.0354 4.74953C51.0354 5.57203 51.2962 6.24178 51.8295 6.77053Z" fill="white" stroke="white" stroke-width="0.2" stroke-miterlimit="10"/>
<path d="M61.1437 8.27266V1.22266H63.7156C64.2726 1.22266 64.7585 1.41066 65.1615 1.76316C65.5763 2.13916 65.7778 2.59741 65.7778 3.13791C65.7778 3.47866 65.6948 3.77241 65.517 4.01916C65.3393 4.27766 65.1141 4.46566 64.8178 4.59491V4.63016C65.1733 4.74766 65.4578 4.94741 65.683 5.24116C65.9082 5.53491 66.0267 5.86391 66.0267 6.23991C66.0267 6.81566 65.8133 7.29741 65.3867 7.67341C64.9482 8.08465 64.4385 8.27266 63.8578 8.27266H61.1437ZM62.0563 4.24241H63.7156C64.0593 4.24241 64.3319 4.12491 64.5452 3.90166C64.7585 3.67841 64.8533 3.43166 64.8533 3.16141C64.8533 2.89116 64.7585 2.64441 64.5452 2.42116C64.3437 2.19791 64.083 2.08041 63.7511 2.08041H62.0563V4.24241ZM62.0563 7.40316H63.8933C64.2489 7.40316 64.5333 7.28566 64.7467 7.03891C64.96 6.79216 65.0785 6.53366 65.0785 6.23991C65.0785 5.94616 64.9719 5.68766 64.7348 5.45266C64.5096 5.21766 64.2133 5.08841 63.8459 5.08841H62.0444V7.40316H62.0563Z" fill="white" stroke="white" stroke-width="0.2" stroke-miterlimit="10"/>
</svg>
